<svg width="17" height="21" viewBox="0 0 17 21" fill="none" xmlns="http://www.w3.org/2000/svg">
<path id="Path 261" d="M0 21C0 18.8783 0.847769 16.8434 2.35681 15.3431C3.86585 13.8429 5.91254 13 8.04665 13C10.1808 13 12.2274 13.8429 13.7365 15.3431C15.2455 16.8434 16.0933 18.8783 16.0933 21H14.0816C14.0816 19.4087 13.4458 17.8826 12.314 16.7574C11.1822 15.6321 9.64722 15 8.04665 15C6.44607 15 4.91105 15.6321 3.77927 16.7574C2.64749 17.8826 2.01166 19.4087 2.01166 21H0ZM8.04665 12C6.85304 12 5.68624 11.6481 4.69379 10.9888C3.70134 10.3295 2.92782 9.39246 2.47105 8.2961C2.01427 7.19975 1.89476 5.99335 2.12762 4.82946C2.36048 3.66558 2.93526 2.59648 3.77927 1.75736C4.62328 0.918247 5.69861 0.346802 6.86928 0.115291C8.03995 -0.11622 9.25339 0.00259972 10.3561 0.456726C11.4589 0.910851 12.4014 1.67989 13.0646 2.66658C13.7277 3.65328 14.0816 4.81331 14.0816 6C14.0816 7.5913 13.4458 9.11742 12.314 10.2426C11.1822 11.3679 9.64722 12 8.04665 12ZM8.04665 10C8.84239 10 9.62025 9.76541 10.2819 9.32588C10.9435 8.88636 11.4592 8.26164 11.7637 7.53074C12.0682 6.79983 12.1479 5.99557 11.9927 5.21964C11.8374 4.44372 11.4542 3.73099 10.8916 3.17158C10.3289 2.61217 9.61201 2.2312 8.83156 2.07686C8.05111 1.92252 7.24215 2.00173 6.50699 2.30448C5.77182 2.60724 5.14346 3.11993 4.70138 3.77772C4.25929 4.43552 4.02332 5.20888 4.02332 6C4.02332 7.06087 4.44721 8.07828 5.20173 8.82843C5.95625 9.57858 6.9796 10 8.04665 10Z" fill="#2B98F7"/>
</svg>
