<svg width="22" height="18" viewBox="0 0 22 18" fill="none" xmlns="http://www.w3.org/2000/svg">
<path id="Path 279" d="M19.845 16H21.8295V18H0V16H1.9845V1C1.9845 0.734784 2.08904 0.48043 2.27512 0.292893C2.4612 0.105357 2.71358 0 2.97674 0H12.8992C13.1624 0 13.4148 0.105357 13.6009 0.292893C13.7869 0.48043 13.8915 0.734784 13.8915 1V16H17.8605V8H15.876V6H18.8527C19.1159 6 19.3683 6.10536 19.5543 6.29289C19.7404 6.48043 19.845 6.73478 19.845 7V16ZM3.96899 2V16H11.907V2H3.96899ZM5.95349 8H9.92248V10H5.95349V8ZM5.95349 4H9.92248V6H5.95349V4Z" fill="#2B98F7"/>
</svg>
