<svg width="17" height="14" viewBox="0 0 17 14" fill="none" xmlns="http://www.w3.org/2000/svg">
<path id="Path 263" d="M0.804665 0H15.2886C15.502 0 15.7067 0.0819442 15.8576 0.227806C16.0085 0.373667 16.0933 0.571498 16.0933 0.777778V13.2222C16.0933 13.4285 16.0085 13.6263 15.8576 13.7722C15.7067 13.9181 15.502 14 15.2886 14H0.804665C0.591254 14 0.386585 13.9181 0.235681 13.7722C0.0847769 13.6263 0 13.4285 0 13.2222V0.777778C0 0.571498 0.0847769 0.373667 0.235681 0.227806C0.386585 0.0819442 0.591254 0 0.804665 0ZM14.484 3.29622L8.10458 8.81845L1.60933 3.27911V12.4444H14.484V3.29622ZM2.02051 1.55556L8.09573 6.73711L14.0816 1.55556H2.02051Z" fill="#2B98F7"/>
</svg>
