<svg width="16" height="21" viewBox="0 0 16 21" fill="none" xmlns="http://www.w3.org/2000/svg">
<path id="Path 281" d="M0 21C0 18.8783 0.836321 16.8434 2.32498 15.3431C3.81364 13.8429 5.8327 13 7.93798 13C10.0433 13 12.0623 13.8429 13.551 15.3431C15.0396 16.8434 15.876 18.8783 15.876 21H0ZM8.93023 15.083V19H13.5531C13.1984 17.9914 12.5829 17.0966 11.7702 16.408C10.9575 15.7193 9.97706 15.2619 8.93023 15.083ZM6.94574 19V15.083C5.89891 15.2619 4.91848 15.7193 4.10577 16.408C3.29306 17.0966 2.67755 17.9914 2.32285 19H6.94574ZM7.93798 12C6.7605 12 5.60945 11.6481 4.6304 10.9888C3.65136 10.3295 2.88828 9.39246 2.43768 8.2961C1.98707 7.19975 1.86917 5.99335 2.09889 4.82946C2.32861 3.66558 2.89562 2.59648 3.72823 1.75736C4.56084 0.918247 5.62165 0.346802 6.77652 0.115291C7.93138 -0.11622 9.12843 0.00259972 10.2163 0.456726C11.3041 0.910851 12.234 1.67989 12.8881 2.66658C13.5423 3.65328 13.8915 4.81331 13.8915 6C13.8915 7.5913 13.2642 9.11742 12.1477 10.2426C11.0312 11.3679 9.51695 12 7.93798 12ZM7.93798 10C8.72298 10 9.49034 9.76541 10.143 9.32588C10.7957 8.88636 11.3045 8.26164 11.6049 7.53074C11.9053 6.79983 11.9839 5.99557 11.8307 5.21964C11.6776 4.44372 11.2996 3.73099 10.7445 3.17158C10.1894 2.61217 9.48221 2.2312 8.7123 2.07686C7.94239 1.92252 7.14436 2.00173 6.41912 2.30448C5.69388 2.60724 5.07401 3.11993 4.63789 3.77772C4.20177 4.43552 3.96899 5.20888 3.96899 6C3.96899 7.06087 4.38715 8.07828 5.13148 8.82843C5.87581 9.57858 6.88534 10 7.93798 10Z" fill="#2B98F7"/>
</svg>
