<svg width="20" height="20" viewBox="0 0 20 20" fill="none" xmlns="http://www.w3.org/2000/svg">
<path id="Path 276" d="M4.20218 4.453C2.93525 5.77594 2.15913 7.4983 2.00443 9.33028C1.84973 11.1623 2.32588 12.992 3.35277 14.5117C4.37966 16.0314 5.8946 17.1482 7.64268 17.6742C9.39076 18.2003 11.2653 18.1034 12.9508 17.4C13.0183 16.8149 12.9364 16.2222 12.7127 15.678C12.1111 14.6238 11.3577 13.6654 10.4772 12.834C10.1418 12.479 10.1636 12.206 10.2837 11.397L10.2966 11.306C10.3779 10.752 10.5149 10.424 12.3654 10.128C12.6668 10.0412 12.9893 10.0698 13.2711 10.2082C13.5528 10.3467 13.7738 10.5852 13.8915 10.878L14.0066 11.05C14.2233 11.4006 14.5513 11.667 14.9373 11.806C15.101 11.881 15.3044 11.976 15.5773 12.131C16.2243 12.504 16.2243 12.925 16.2243 13.847V13.947C16.2252 14.2941 16.1919 14.6405 16.125 14.981C16.886 14.0185 17.4164 12.8921 17.675 11.6893C17.9335 10.4866 17.9132 9.23991 17.6157 8.04633C17.3182 6.85276 16.7515 5.74444 15.9596 4.80763C15.1677 3.87081 14.172 3.13074 13.0501 2.645C12.4767 2.99718 11.9508 3.42235 11.4853 3.91C11.3513 4.095 11.1608 5.042 10.5426 5.12C10.34 5.13412 10.1365 5.13111 9.93439 5.111C9.31721 5.071 8.4738 5.016 8.20391 5.755C8.08917 6.15725 8.06133 6.57961 8.12226 6.99361C8.1832 7.40762 8.33149 7.80365 8.55715 8.155C8.60418 8.23202 8.63278 8.319 8.6407 8.40908C8.64863 8.49916 8.63565 8.58985 8.6028 8.674C8.55649 8.86551 8.45581 9.03926 8.31306 9.174C8.16 9.04564 8.02066 8.90153 7.89731 8.74401C7.59634 8.31456 7.17924 7.98133 6.69569 7.784C6.51312 7.733 6.31269 7.691 6.11721 7.649C5.57247 7.532 4.96124 7.4 4.81241 7.093C4.71982 6.81478 4.68437 6.52047 4.70822 6.228C4.73894 5.7705 4.67125 5.31171 4.50977 4.883C4.4394 4.71991 4.33598 4.57345 4.20614 4.453H4.20218ZM9.92249 20C7.96 20 6.04159 19.4135 4.40985 18.3147C2.77811 17.2159 1.50632 15.6541 0.755308 13.8268C0.00429925 11.9996 -0.192199 9.98891 0.190662 8.0491C0.573523 6.10929 1.51855 4.32746 2.90623 2.92894C4.29392 1.53041 6.06193 0.578004 7.98671 0.192152C9.91148 -0.193701 11.9066 0.00433284 13.7197 0.761209C15.5328 1.51809 17.0824 2.79981 18.1727 4.4443C19.263 6.08879 19.845 8.02219 19.845 10C19.845 12.6522 18.7996 15.1957 16.9387 17.0711C15.0779 18.9464 12.5541 20 9.92249 20Z" fill="#2B98F7"/>
</svg>
