<svg width="19" height="18" viewBox="0 0 19 18" fill="none" xmlns="http://www.w3.org/2000/svg">
<path id="Path 274" d="M6.40374 7.68201C7.34755 9.33049 8.7207 10.6957 10.3788 11.634L11.2659 10.4C11.4083 10.2003 11.6195 10.0594 11.8594 10.0041C12.0992 9.94883 12.3512 9.98295 12.5675 10.1C13.99 10.8729 15.561 11.3378 17.1772 11.464C17.43 11.4839 17.6658 11.598 17.8376 11.7834C18.0094 11.9689 18.1044 12.2119 18.1036 12.464V16.926C18.1048 17.1748 18.0128 17.4151 17.8454 17.6C17.678 17.7849 17.4473 17.9011 17.1983 17.926C14.8913 18.1623 12.5603 17.8843 10.3751 17.1121C8.18978 16.3398 6.20518 15.0929 4.56573 13.462C2.92628 11.8311 1.67323 9.85726 0.897789 7.68419C0.12235 5.51113 -0.155966 3.1935 0.0831005 0.900013C0.108119 0.652489 0.225038 0.423124 0.411026 0.256706C0.597013 0.0902876 0.838714 -0.00123409 1.08893 1.25703e-05H5.57192C5.82547 -0.000775183 6.06996 0.0936697 6.25647 0.264443C6.44297 0.435217 6.55772 0.669719 6.57775 0.921013C6.70434 2.52621 7.17085 4.08667 7.94669 5.50001C8.06615 5.71563 8.10142 5.96749 8.04575 6.20736C7.99007 6.44722 7.84736 6.65824 7.64494 6.80001L6.39972 7.68401L6.40374 7.68201ZM3.86704 7.02501L5.77812 5.66801C5.23575 4.50411 4.86417 3.26885 4.67472 2.00001H2.02234C2.01228 2.16601 2.01228 2.33301 2.01228 2.50001C2.01228 6.08044 3.4429 9.51421 5.9894 12.046C8.5359 14.5777 11.9897 16 15.591 16C15.759 16 15.9269 16 16.0939 15.99V13.353C14.8175 13.1637 13.5751 12.7933 12.4045 12.253L11.0396 14.153C10.4901 13.9407 9.95634 13.6901 9.44236 13.403L9.38402 13.37C7.41216 12.254 5.77914 10.6304 4.65661 8.67001L4.62342 8.61201C4.33465 8.10101 4.08257 7.57035 3.86905 7.02401L3.86704 7.02501Z" fill="#2B98F7"/>
</svg>
