<svg width="20" height="20" viewBox="0 0 20 20" fill="none" xmlns="http://www.w3.org/2000/svg">
<path id="Path 267" d="M8 0.823242H12C14.1217 0.823242 16.1566 1.64957 17.6569 3.12044C19.1571 4.59132 20 6.58625 20 8.66638C20 10.7465 19.1571 12.7414 17.6569 14.2123C16.1566 15.6832 14.1217 16.5095 12 16.5095V19.9409C7 17.9801 0 15.0389 0 8.66638C0 6.58625 0.842855 4.59132 2.34315 3.12044C3.84344 1.64957 5.87827 0.823242 8 0.823242ZM10 14.5487H12C13.5913 14.5487 15.1174 13.929 16.2426 12.8258C17.3679 11.7227 18 10.2265 18 8.66638C18 7.10628 17.3679 5.61008 16.2426 4.50693C15.1174 3.40377 13.5913 2.78403 12 2.78403H8C6.4087 2.78403 4.88258 3.40377 3.75736 4.50693C2.63214 5.61008 2 7.10628 2 8.66638C2 12.2056 4.462 14.5154 10 16.9801V14.5487Z" fill="#2B98F7"/>
</svg>
